# xmcd
#
# Track frame offsets:
#	150
#	17165
#	34781
#	47564
#	75076
#	84853
#	110946
#	124986
#	145800
#	172771
#	188183
#	206533
#
# Disc length: 3116 seconds
# Revision: 0
# Processed by: cddbd v1.5.2PL0 Copyright (c) Steve Scherf et al.
# Submitted via: dBpowerAMP V12.0
#
DISCID=930c2a0c
DTITLE=Workhouse Poets - Hank's Cadillac
DYEAR=2011
DGENRE=Country
TTITLE0=Hey Boy
TTITLE1=Hank's Cadillac
TTITLE2=Citizen Soldiers
TTITLE3=Lonesome Town
TTITLE4=Cactus Jack's
TTITLE5=Harvest Town
TTITLE6=Rock On Old Man
TTITLE7=Willie
TTITLE8=I'll Fly Away (Song For Joan)
TTITLE9=The House That Never Was
TTITLE10=Romance Road
TTITLE11=Adios Baby
EXTD=
EXTT0=
EXTT1=
EXTT2=
EXTT3=
EXTT4=
EXTT5=
EXTT6=
EXTT7=
EXTT8=
EXTT9=
EXTT10=
EXTT11=
PLAYORDER=
